# xmcd
#
# Track frame offsets: 
#        150
#        23346
#        41912
#        58639
#        83531
#        107777
#        125850
#        146218
#        163841
#        180427
#        194303
#        211130
#        224869
#        252778
#        277916
#        296609
#
# Disc length: 4227 seconds
#
# Revision: 0
# Processed by: cddbd v1.5.2PL0 Copyright (c) Steve Scherf et al.
# Submitted via: ExactAudioCopy v1.1
#
DISCID=f2108110
DTITLE=Various Artist - Rhythm and Blues Now!  CD2
DYEAR=2016
DGENRE=Blues
TTITLE0=Boogie Band - I Got The Blues
TTITLE1=Boogie Band - You Look My Baby
TTITLE2=Boogie Band - Proud Mary
TTITLE3=Boogie Band - Sensitive Kind
TTITLE4=Boogie Band - Imagine
TTITLE5=Boogie Band - Мрачный Блюз
TTITLE6=Boogie Band - Колбаса
TTITLE7=Элина Ибрагимова and Boogie Band - Baby Wouldn't You
TTITLE8=Boogie Band - 29 Ways
TTITLE9=Элина Ибрагимова and Boogie Band - Would You Dance To My Music
TTITLE10=Boogie Band - Secret Agent Man
TTITLE11=Boogie Band - Last Time
TTITLE12=Boogie Band - Red House
TTITLE13=Boogie Band - Day Dream
TTITLE14=Ринат Билялов and Boogie Band - Wind Cries Mary
TTITLE15=Boogie Band - Я иду ...
EXTD=
EXTT0=
EXTT1=
EXTT2=
EXTT3=
EXTT4=
EXTT5=
EXTT6=
EXTT7=
EXTT8=
EXTT9=
EXTT10=
EXTT11=
EXTT12=
EXTT13=
EXTT14=
EXTT15=
PLAYORDER=
